<svg height="1758" width="720" xmlns="http://www.w3.org/2000/svg">
<rect height="1758" fill="#555" width="720"></rect>
<text fill="#7f7" font-family="Courier New" font-size="12" xml:space="preserve">
<tspan x="10" y="26">5 megabytes installed</tspan>
<tspan x="10" y="42"></tspan>
<tspan x="10" y="58">node_modules</tspan>
<tspan x="10" y="74">└─┬ gulp-minify@0.0.15 </tspan>
<tspan x="10" y="90">  ├─┬ gulp-util@2.2.20 </tspan>
<tspan x="10" y="106">  │ ├─┬ chalk@0.5.1 </tspan>
<tspan x="10" y="122">  │ │ ├── ansi-styles@1.1.0 </tspan>
<tspan x="10" y="138">  │ │ ├── escape-string-regexp@1.0.5 </tspan>
<tspan x="10" y="154">  │ │ ├─┬ has-ansi@0.1.0 </tspan>
<tspan x="10" y="170">  │ │ │ └── ansi-regex@0.2.1 </tspan>
<tspan x="10" y="186">  │ │ ├── strip-ansi@0.3.0 </tspan>
<tspan x="10" y="202">  │ │ └── supports-color@0.2.0 </tspan>
<tspan x="10" y="218">  │ ├─┬ dateformat@1.0.12 </tspan>
<tspan x="10" y="234">  │ │ ├── get-stdin@4.0.1 </tspan>
<tspan x="10" y="250">  │ │ └─┬ meow@3.7.0 </tspan>
<tspan x="10" y="266">  │ │   ├─┬ camelcase-keys@2.1.0 </tspan>
<tspan x="10" y="282">  │ │   │ └── camelcase@2.1.1 </tspan>
<tspan x="10" y="298">  │ │   ├─┬ loud-rejection@1.6.0 </tspan>
<tspan x="10" y="314">  │ │   │ ├─┬ currently-unhandled@0.4.1 </tspan>
<tspan x="10" y="330">  │ │   │ │ └── array-find-index@1.0.2 </tspan>
<tspan x="10" y="346">  │ │   │ └── signal-exit@3.0.2 </tspan>
<tspan x="10" y="362">  │ │   ├── map-obj@1.0.1 </tspan>
<tspan x="10" y="378">  │ │   ├── minimist@1.2.0 </tspan>
<tspan x="10" y="394">  │ │   ├─┬ normalize-package-data@2.3.8 </tspan>
<tspan x="10" y="410">  │ │   │ ├── hosted-git-info@2.4.2 </tspan>
<tspan x="10" y="426">  │ │   │ ├─┬ is-builtin-module@1.0.0 </tspan>
<tspan x="10" y="442">  │ │   │ │ └── builtin-modules@1.1.1 </tspan>
<tspan x="10" y="458">  │ │   │ ├── semver@5.3.0 </tspan>
<tspan x="10" y="474">  │ │   │ └─┬ validate-npm-package-license@3.0.1 </tspan>
<tspan x="10" y="490">  │ │   │   ├─┬ spdx-correct@1.0.2 </tspan>
<tspan x="10" y="506">  │ │   │   │ └── spdx-license-ids@1.2.2 </tspan>
<tspan x="10" y="522">  │ │   │   └── spdx-expression-parse@1.0.4 </tspan>
<tspan x="10" y="538">  │ │   ├── object-assign@4.1.1 </tspan>
<tspan x="10" y="554">  │ │   ├─┬ read-pkg-up@1.0.1 </tspan>
<tspan x="10" y="570">  │ │   │ ├─┬ find-up@1.1.2 </tspan>
<tspan x="10" y="586">  │ │   │ │ ├── path-exists@2.1.0 </tspan>
<tspan x="10" y="602">  │ │   │ │ └─┬ pinkie-promise@2.0.1 </tspan>
<tspan x="10" y="618">  │ │   │ │   └── pinkie@2.0.4 </tspan>
<tspan x="10" y="634">  │ │   │ └─┬ read-pkg@1.1.0 </tspan>
<tspan x="10" y="650">  │ │   │   ├─┬ load-json-file@1.1.0 </tspan>
<tspan x="10" y="666">  │ │   │   │ ├── graceful-fs@4.1.11 </tspan>
<tspan x="10" y="682">  │ │   │   │ ├─┬ parse-json@2.2.0 </tspan>
<tspan x="10" y="698">  │ │   │   │ │ └─┬ error-ex@1.3.1 </tspan>
<tspan x="10" y="714">  │ │   │   │ │   └── is-arrayish@0.2.1 </tspan>
<tspan x="10" y="730">  │ │   │   │ ├── pify@2.3.0 </tspan>
<tspan x="10" y="746">  │ │   │   │ └─┬ strip-bom@2.0.0 </tspan>
<tspan x="10" y="762">  │ │   │   │   └── is-utf8@0.2.1 </tspan>
<tspan x="10" y="778">  │ │   │   └── path-type@1.1.0 </tspan>
<tspan x="10" y="794">  │ │   ├─┬ redent@1.0.0 </tspan>
<tspan x="10" y="810">  │ │   │ ├─┬ indent-string@2.1.0 </tspan>
<tspan x="10" y="826">  │ │   │ │ └─┬ repeating@2.0.1 </tspan>
<tspan x="10" y="842">  │ │   │ │   └─┬ is-finite@1.0.2 </tspan>
<tspan x="10" y="858">  │ │   │ │     └── number-is-nan@1.0.1 </tspan>
<tspan x="10" y="874">  │ │   │ └── strip-indent@1.0.1 </tspan>
<tspan x="10" y="890">  │ │   └── trim-newlines@1.0.0 </tspan>
<tspan x="10" y="906">  │ ├── lodash._reinterpolate@2.4.1 </tspan>
<tspan x="10" y="922">  │ ├─┬ lodash.template@2.4.1 </tspan>
<tspan x="10" y="938">  │ │ ├── lodash._escapestringchar@2.4.1 </tspan>
<tspan x="10" y="954">  │ │ ├─┬ lodash.defaults@2.4.1 </tspan>
<tspan x="10" y="970">  │ │ │ └── lodash._objecttypes@2.4.1 </tspan>
<tspan x="10" y="986">  │ │ ├─┬ lodash.escape@2.4.1 </tspan>
<tspan x="10" y="1002">  │ │ │ ├─┬ lodash._escapehtmlchar@2.4.1 </tspan>
<tspan x="10" y="1018">  │ │ │ │ └── lodash._htmlescapes@2.4.1 </tspan>
<tspan x="10" y="1034">  │ │ │ └── lodash._reunescapedhtml@2.4.1 </tspan>
<tspan x="10" y="1050">  │ │ ├─┬ lodash.keys@2.4.1 </tspan>
<tspan x="10" y="1066">  │ │ │ ├── lodash._isnative@2.4.1 </tspan>
<tspan x="10" y="1082">  │ │ │ ├── lodash._shimkeys@2.4.1 </tspan>
<tspan x="10" y="1098">  │ │ │ └── lodash.isobject@2.4.1 </tspan>
<tspan x="10" y="1114">  │ │ ├── lodash.templatesettings@2.4.1 </tspan>
<tspan x="10" y="1130">  │ │ └── lodash.values@2.4.1 </tspan>
<tspan x="10" y="1146">  │ ├── minimist@0.2.0 </tspan>
<tspan x="10" y="1162">  │ ├─┬ multipipe@0.1.2 </tspan>
<tspan x="10" y="1178">  │ │ └─┬ duplexer2@0.0.2 </tspan>
<tspan x="10" y="1194">  │ │   └── readable-stream@1.1.14 </tspan>
<tspan x="10" y="1210">  │ ├─┬ through2@0.5.1 </tspan>
<tspan x="10" y="1226">  │ │ ├── readable-stream@1.0.34 </tspan>
<tspan x="10" y="1242">  │ │ └── xtend@3.0.0 </tspan>
<tspan x="10" y="1258">  │ └─┬ vinyl@0.2.3 </tspan>
<tspan x="10" y="1274">  │   └── clone-stats@0.0.1 </tspan>
<tspan x="10" y="1290">  ├─┬ minimatch@3.0.3 </tspan>
<tspan x="10" y="1306">  │ └─┬ brace-expansion@1.1.7 </tspan>
<tspan x="10" y="1322">  │   ├── balanced-match@0.4.2 </tspan>
<tspan x="10" y="1338">  │   └── concat-map@0.0.1 </tspan>
<tspan x="10" y="1354">  ├─┬ through2@0.4.2 </tspan>
<tspan x="10" y="1370">  │ ├─┬ readable-stream@1.0.34 </tspan>
<tspan x="10" y="1386">  │ │ ├── core-util-is@1.0.2 </tspan>
<tspan x="10" y="1402">  │ │ ├── inherits@2.0.3 </tspan>
<tspan x="10" y="1418">  │ │ ├── isarray@0.0.1 </tspan>
<tspan x="10" y="1434">  │ │ └── string_decoder@0.10.31 </tspan>
<tspan x="10" y="1450">  │ └─┬ xtend@2.1.2 </tspan>
<tspan x="10" y="1466">  │   └── object-keys@0.4.0 </tspan>
<tspan x="10" y="1482">  └─┬ uglify-js@2.8.22 </tspan>
<tspan x="10" y="1498">    ├── source-map@0.5.6 </tspan>
<tspan x="10" y="1514">    ├── uglify-to-browserify@1.0.2 </tspan>
<tspan x="10" y="1530">    └─┬ yargs@3.10.0 </tspan>
<tspan x="10" y="1546">      ├── camelcase@1.2.1 </tspan>
<tspan x="10" y="1562">      ├─┬ cliui@2.1.0 </tspan>
<tspan x="10" y="1578">      │ ├─┬ center-align@0.1.3 </tspan>
<tspan x="10" y="1594">      │ │ ├─┬ align-text@0.1.4 </tspan>
<tspan x="10" y="1610">      │ │ │ ├─┬ kind-of@3.2.0 </tspan>
<tspan x="10" y="1626">      │ │ │ │ └── is-buffer@1.1.5 </tspan>
<tspan x="10" y="1642">      │ │ │ ├── longest@1.0.1 </tspan>
<tspan x="10" y="1658">      │ │ │ └── repeat-string@1.6.1 </tspan>
<tspan x="10" y="1674">      │ │ └── lazy-cache@1.0.4 </tspan>
<tspan x="10" y="1690">      │ ├── right-align@0.1.3 </tspan>
<tspan x="10" y="1706">      │ └── wordwrap@0.0.2 </tspan>
<tspan x="10" y="1722">      ├── decamelize@1.2.0 </tspan>
<tspan x="10" y="1738">      └── window-size@0.1.0</tspan>
</text>
</svg>
